<svg xmlns="http://www.w3.org/2000/svg" viewBox="0 0 96 96" role="img" aria-labelledby="title">
  <title id="title">SharePoint</title>
  <defs>
    <linearGradient id="sharePointGradient" x1="18" x2="78" y1="20" y2="76" gradientUnits="userSpaceOnUse">
      <stop offset="0" stop-color="#37d6c8"/>
      <stop offset="1" stop-color="#0078d4"/>
    </linearGradient>
  </defs>
  <rect width="96" height="96" rx="22" fill="#eefbfa"/>
  <circle cx="56" cy="26" r="13" fill="#37d6c8"/>
  <circle cx="64" cy="64" r="14" fill="#0078d4"/>
  <circle cx="28" cy="53" r="18" fill="url(#sharePointGradient)"/>
  <path fill="#fff" d="M37.5 42.8c-2.1-2.1-5.2-3.3-8.8-3.3-5.7 0-9.7 3-9.7 7.6 0 4.8 4 6.3 8.1 7.3 3.4.8 5.1 1.3 5.1 3 0 1.6-1.6 2.5-4.2 2.5-3 0-5.2-1.1-7-3.2l-3.9 3.8c2.6 3 6.4 4.5 10.8 4.5 6.1 0 10.2-3.1 10.2-8 0-5.3-4.5-6.8-8.7-7.8-3.3-.8-4.7-1.2-4.7-2.7 0-1.4 1.3-2.2 3.8-2.2 2.4 0 4.1.8 5.6 2.3l3.4-4.3z"/>
</svg>
